<?xml version="1.0" encoding="iso-8859-1"?>
<!-- Generator: Adobe Illustrator 19.0.0, SVG Export Plug-In . SVG Version: 6.00 Build 0)  -->
<svg version="1.1" id="laptop" xmlns="http://www.w3.org/2000/svg" xmlns:xlink="http://www.w3.org/1999/xlink" x="0px" y="0px"
	 viewBox="0 0 511.999 511.999" style="enable-background:new 0 0 511.999 511.999;" xml:space="preserve">
<circle style="fill:#88C5CC;" cx="255.999" cy="255.999" r="255.999"/>
<path style="fill:#263740;" d="M56,320V120c0-8,4-12,12-12h376c8,0,12,4,12,12v200H56V320z"/>
<path style="fill:#E6E6E6;" d="M56,320v48c0,8,4,12,12,12h376c8,0,12-4,12-12v-48H56z"/>
<rect x="76" y="136.003" style="fill:#FFFFFF;" width="360" height="160.002"/>
<circle style="fill:#CC584C;" cx="255.999" cy="123.998" r="4"/>
<path style="fill:#F5F5F5;" d="M338.436,444.988c-26.029-8.672-39.044-52.988-39.044-64.988h-43.392h-43.392
	c0,12-13.016,56.316-39.048,64.988c-4.344,0-8.68,3.164-8.68,7.504c0,4.336,4.336,7.508,8.68,7.508c8.672,0,82.432,0,82.432,0
	s73.76,0,82.433,0c4.344,0,8.68-3.172,8.68-7.508C347.116,448.152,342.78,444.988,338.436,444.988z"/>
<path style="fill:#E6E6E6;" d="M173.564,444.001c-4.344,0-8.68,3.664-8.68,8s4.336,8,8.68,8c8.672,0,82.436,0,82.436,0
	s73.764,0,82.436,0c4.344,0,8.68-3.664,8.68-8s-4.336-8-8.68-8H173.564z"/>
<circle style="fill:#F5F5F5;" cx="255.999" cy="353.53" r="10.248"/>
<polygon style="fill:#4AB8A1;" points="76,296 136,236 192,260 264,200 304,260 352,212 392,244 436,152 436,296 "/>
<polygon style="fill:#FFD464;" points="136.916,240.744 192.676,264.64 263.14,205.92 303.384,266.272 352.296,217.36 
	393.364,250.22 436,164.944 436,147.056 390.636,237.78 351.704,206.64 304.616,253.729 264.86,194.08 191.324,255.36 
	135.084,231.256 76,290.344 76,296 81.656,296 "/>
<circle style="fill:#E16B5A;" cx="262.002" cy="206" r="14"/>
<circle style="fill:#F5F5F5;" cx="262.002" cy="206" r="8.4"/>
<circle style="fill:#E16B5A;" cx="190.004" cy="258" r="14"/>
<circle style="fill:#F5F5F5;" cx="190.004" cy="258" r="8.4"/>
<circle style="fill:#E16B5A;" cx="138.004" cy="238.003" r="14"/>
<circle style="fill:#F5F5F5;" cx="138.004" cy="238.003" r="8.4"/>
<circle style="fill:#E16B5A;" cx="301.997" cy="253.999" r="14"/>
<circle style="fill:#F5F5F5;" cx="301.997" cy="253.999" r="8.4"/>
<circle style="fill:#E16B5A;" cx="353.998" cy="214.003" r="14"/>
<circle style="fill:#F5F5F5;" cx="353.998" cy="214.003" r="8.4"/>
<circle style="fill:#E16B5A;" cx="390.002" cy="242.004" r="14"/>
<circle style="fill:#F5F5F5;" cx="390.002" cy="242.004" r="8.4"/>
<g>
</g>
<g>
</g>
<g>
</g>
<g>
</g>
<g>
</g>
<g>
</g>
<g>
</g>
<g>
</g>
<g>
</g>
<g>
</g>
<g>
</g>
<g>
</g>
<g>
</g>
<g>
</g>
<g>
</g>
</svg>
